<mxfile host="app.diagrams.net" agent="Mozilla/5.0 (X11; Linux x86_64; rv:128.0) Gecko/20100101 Firefox/128.0" version="27.0.2">
  <diagram name="Page-1" id="I-WCKS0thHTMVLHOPiGX">
    <mxGraphModel dx="696" dy="388" grid="1" gridSize="10" guides="1" tooltips="1" connect="1" arrows="1" fold="1" page="1" pageScale="1" pageWidth="850" pageHeight="1100" math="0" shadow="0">
      <root>
        <mxCell id="0" />
        <mxCell id="1" parent="0" />
        <mxCell id="E8oWA0aktgfHAe41XzHA-4" value="Visitor at INNOVATE" style="shape=umlActor;verticalLabelPosition=bottom;verticalAlign=top;html=1;outlineConnect=0;" parent="1" vertex="1">
          <mxGeometry x="360" y="10" width="30" height="60" as="geometry" />
        </mxCell>
        <mxCell id="E8oWA0aktgfHAe41XzHA-31" value="" style="group" parent="1" vertex="1" connectable="0">
          <mxGeometry x="10" y="30" width="280" height="150" as="geometry" />
        </mxCell>
        <mxCell id="E8oWA0aktgfHAe41XzHA-10" value="" style="rounded=0;whiteSpace=wrap;html=1;container=0;" parent="E8oWA0aktgfHAe41XzHA-31" vertex="1">
          <mxGeometry width="280" height="150" as="geometry" />
        </mxCell>
        <mxCell id="E8oWA0aktgfHAe41XzHA-19" value="Detect Exit/Entry" style="ellipse;whiteSpace=wrap;html=1;" parent="E8oWA0aktgfHAe41XzHA-31" vertex="1">
          <mxGeometry x="150" y="15" width="116.54" height="50" as="geometry" />
        </mxCell>
        <mxCell id="E8oWA0aktgfHAe41XzHA-23" value="Aggregate data" style="ellipse;whiteSpace=wrap;html=1;" parent="E8oWA0aktgfHAe41XzHA-31" vertex="1">
          <mxGeometry x="10" y="15" width="116.54" height="50" as="geometry" />
        </mxCell>
        <mxCell id="E8oWA0aktgfHAe41XzHA-27" value="" style="endArrow=none;html=1;rounded=0;startFill=0;" parent="E8oWA0aktgfHAe41XzHA-31" source="E8oWA0aktgfHAe41XzHA-19" target="E8oWA0aktgfHAe41XzHA-23" edge="1">
          <mxGeometry width="50" height="50" relative="1" as="geometry">
            <mxPoint x="129.23076923076923" y="255" as="sourcePoint" />
            <mxPoint x="183.07692307692307" y="205" as="targetPoint" />
          </mxGeometry>
        </mxCell>
        <mxCell id="XgBoxh5yVD7ZAtkX6JRY-5" value="Process data" style="ellipse;whiteSpace=wrap;html=1;" vertex="1" parent="E8oWA0aktgfHAe41XzHA-31">
          <mxGeometry x="10" y="85" width="116.54" height="50" as="geometry" />
        </mxCell>
        <mxCell id="XgBoxh5yVD7ZAtkX6JRY-6" value="" style="edgeStyle=orthogonalEdgeStyle;rounded=0;orthogonalLoop=1;jettySize=auto;html=1;endArrow=none;startFill=0;" edge="1" parent="E8oWA0aktgfHAe41XzHA-31" source="E8oWA0aktgfHAe41XzHA-23" target="XgBoxh5yVD7ZAtkX6JRY-5">
          <mxGeometry relative="1" as="geometry" />
        </mxCell>
        <mxCell id="XgBoxh5yVD7ZAtkX6JRY-7" value="&lt;div&gt;Display data&lt;/div&gt;" style="ellipse;whiteSpace=wrap;html=1;" vertex="1" parent="E8oWA0aktgfHAe41XzHA-31">
          <mxGeometry x="150" y="85" width="116.54" height="50" as="geometry" />
        </mxCell>
        <mxCell id="XgBoxh5yVD7ZAtkX6JRY-8" value="" style="edgeStyle=orthogonalEdgeStyle;rounded=0;orthogonalLoop=1;jettySize=auto;html=1;endArrow=none;startFill=0;" edge="1" parent="E8oWA0aktgfHAe41XzHA-31" source="XgBoxh5yVD7ZAtkX6JRY-5" target="XgBoxh5yVD7ZAtkX6JRY-7">
          <mxGeometry relative="1" as="geometry" />
        </mxCell>
        <mxCell id="E8oWA0aktgfHAe41XzHA-29" value="" style="endArrow=none;html=1;rounded=0;startFill=0;" parent="1" source="E8oWA0aktgfHAe41XzHA-4" target="E8oWA0aktgfHAe41XzHA-19" edge="1">
          <mxGeometry width="50" height="50" relative="1" as="geometry">
            <mxPoint x="150" y="270" as="sourcePoint" />
            <mxPoint x="200" y="220" as="targetPoint" />
          </mxGeometry>
        </mxCell>
        <mxCell id="XgBoxh5yVD7ZAtkX6JRY-9" value="" style="endArrow=none;html=1;rounded=0;" edge="1" parent="1" source="E8oWA0aktgfHAe41XzHA-4" target="XgBoxh5yVD7ZAtkX6JRY-7">
          <mxGeometry width="50" height="50" relative="1" as="geometry">
            <mxPoint x="180" y="190" as="sourcePoint" />
            <mxPoint x="230" y="140" as="targetPoint" />
          </mxGeometry>
        </mxCell>
        <mxCell id="XgBoxh5yVD7ZAtkX6JRY-10" value="&lt;div&gt;Administrative worker&lt;/div&gt;&lt;div&gt;at INNOVATE&lt;br&gt;&lt;/div&gt;" style="shape=umlActor;verticalLabelPosition=bottom;verticalAlign=top;html=1;outlineConnect=0;" vertex="1" parent="1">
          <mxGeometry x="360" y="110" width="30" height="60" as="geometry" />
        </mxCell>
        <mxCell id="XgBoxh5yVD7ZAtkX6JRY-11" value="" style="endArrow=none;html=1;rounded=0;" edge="1" parent="1" source="XgBoxh5yVD7ZAtkX6JRY-7" target="XgBoxh5yVD7ZAtkX6JRY-10">
          <mxGeometry width="50" height="50" relative="1" as="geometry">
            <mxPoint x="180" y="190" as="sourcePoint" />
            <mxPoint x="230" y="140" as="targetPoint" />
          </mxGeometry>
        </mxCell>
      </root>
    </mxGraphModel>
  </diagram>
</mxfile>
